<svg width="100%" height="100%" viewBox="0 0 99 40" fill="none" xmlns="http://www.w3.org/2000/svg">
<path fill-rule="evenodd" clip-rule="evenodd" d="M29.8243 8.41185C35.9507 -0.177621 48.9332 -2.22674 57.5996 3.61901C56.1471 5.75922 54.7926 7.96982 53.3893 10.1453C49.1504 7.09262 43.0242 7.00848 38.8208 10.1664C33.7892 13.5839 32.0977 20.9734 35.4243 26.138C38.9399 32.2295 47.9225 34.1314 53.4173 29.5768C58.1121 26.138 58.0838 19.8577 59.6487 14.7839C61.5295 8.39094 66.7085 2.91719 73.1926 1.12771C79.0314 -0.507444 85.6417 0.271575 90.6874 3.74533C89.2629 5.89965 87.9154 8.09613 86.5331 10.2716C83.5295 8.11726 79.5505 7.26112 75.9645 8.27859C70.6173 9.6261 66.7154 15.0577 67.0944 20.5523C67.2207 26.6576 72.561 32.1664 78.7365 32.1592C83.7961 32.4399 88.2241 28.6643 89.7118 23.9839C85.7961 23.9348 81.8874 24.005 77.9786 23.9487C79.3048 21.4224 80.9891 19.1137 82.4979 16.6998C87.6208 16.7206 92.7506 16.6365 97.8732 16.7558C98.8418 23.8295 96.1681 31.4156 90.3786 35.7454C81.9224 42.5034 68.2734 40.2082 62.2594 31.2891C59.0452 35.6963 54.0838 38.8681 48.6314 39.4857C42.1613 40.4682 35.3893 38.0121 30.954 33.2258C28.8279 36.4683 25.1856 38.7346 21.2557 38.7839C14.4068 38.945 7.53641 39.0224 0.6875 38.7557C0.750518 26.2154 0.729465 13.6821 0.701395 1.14182C6.86301 1.12076 13.0241 1.09269 19.1855 1.14884C23.7189 1.2402 28.3224 4.0049 29.8243 8.41185ZM8.89087 8.22947C8.98217 10.9243 8.94715 13.6191 8.93999 16.3208C12.1118 16.3067 15.2841 16.3769 18.4559 16.3067C20.638 16.3769 22.6382 14.3487 22.4558 12.1594C22.5328 10.0189 20.568 8.08919 18.442 8.15922C15.2558 8.10315 12.0698 8.09614 8.89087 8.22947ZM8.96827 23.233C8.9261 26.1173 8.93326 28.9946 8.96827 31.8785C12.589 31.8507 16.2102 31.9207 19.8242 31.8715C21.9786 31.9907 24.1753 30.4608 24.4977 28.2782C25.0384 25.8432 22.961 23.4081 20.526 23.3101C16.6805 23.1696 12.8208 23.3382 8.96827 23.233Z" fill="#3C3C3C"/>
</svg>
