<svg viewBox="0 0 253 32" fill="none" xmlns="http://www.w3.org/2000/svg" width="100%"
  height="100%">
    <g fill="none" fill-rule="evenodd">
        <path
            d="M111.373 18.247l-2.385 8.945c-.5.05-1.131.12-2.104.12-4.68 0-4.162-1.432-2.187-9.228C106.75 9.98 107.943 8.5 110.86 8.5c2.812 0 2.834 1.933 2.119 4.378h7.13c1.156-4.566.383-8.612-7.953-8.612-9.284 0-11.807 1.999-14.795 13.817C94.577 29.087 95.492 32 105.527 32c4.754 0 6.75-.355 9.647-.892l3.355-12.861h-7.156zM128.325 27.223c-.969 0-1.307-.294-1.126-1.08l1.688-6.624h9.947l1.119-4.347h-9.947l1.128-4.42c.298-1.155 1.118-2.135 2.715-2.135h7.965l1.12-4.35h-11.567c-4.8 0-6.245.86-8.11 8.102l-3.438 13.253c-1.055 4.442.263 6.378 3.883 6.378h9.988c1.968 0 3.235-1.047 3.843-2.653l.815-2.124h-10.023zM238.402 26.881c-.956 0-1.294-.29-1.114-1.063l1.674-6.525h9.823l1.107-4.283h-9.825l1.115-4.353c.292-1.138 1.103-2.103 2.686-2.103h7.864l1.11-4.285H241.41c-4.745 0-6.175.848-8.016 7.98l-3.392 13.055c-1.042 4.375.258 6.282 3.833 6.282h9.874c1.936 0 3.188-1.031 3.79-2.613l.81-2.092h-9.907zM79.857 27.262h-2.036l4.799-18.64c.614 0 .848-.027 2.377-.027 4.308 0 4.304 1.43 2.246 9.417-2.077 8.087-3.286 9.25-7.386 9.25m6.374-22.995h-9.943l-6.927 26.9c-.117.46.148.833.595.833h8.859c11.123 0 12.999-2.137 16.048-13.988C97.513 7.717 95.88 4.267 86.23 4.267M221.818 4.267c-5.763 0-8.442.127-10.018.058l-6.972 26.845c-.118.457.147.83.601.83h6.685l6.057-23.329c.622 0 1.555-.056 2.504-.056 3.248 0 3.678 1.154 2.82 4.451l-4.7 18.104c-.122.457.148.83.601.83h6.684l4.916-18.934c1.704-6.56-1.19-8.8-9.178-8.8M165.417 4.267l-1.15 4.505h7.392c.07 0 .07.096.009.145-1.184.892-1.903 2.159-2.246 3.489l-4.846 18.762c-.114.46.15.832.596.832h7.143l6-23.228h3.66c2.053 0 3.3-.864 3.993-2.66l.699-1.845h-21.25zM64.301 32l6.075-26.903c.102-.459-.131-.83-.523-.83h-6.156l-6.072 26.901c-.105.458.13.832.524.832H64.3zM191.229 27.465c-3.068 0-3.522-1.133-1.385-9.548 1.78-7.002 3.478-9.439 6.21-9.439 3.063 0 3.398 1.676 1.428 9.439-1.959 7.693-3.89 9.548-6.253 9.548m5.895-23.198c-8.033 0-11.522 1.453-14.676 13.867-2.73 10.75-.54 13.866 7.625 13.866 8.311 0 11.594-1.74 14.682-13.866 2.228-8.78 1.772-13.867-7.631-13.867"
            fill="#000" />
        <path
            d="M4.275 17.867l4.258-14.93C8.946 1.399 10.646 0 12.36 0h13.026c.219 0 .288.287.117.401-6.773 4.63-14.938 11.506-20.861 17.66-.154.162-.428.033-.368-.194"
            fill="#ED1C24" />
        <path
            d="M14.278 27.473l4.13-15.076c.064-.229-.174-.396-.35-.239C11.982 17.614 4.649 25.585.06 31.61c-.117.154-.056.391.144.391h17.88c7.54 0 11.664-2.441 13.164-8.265 1.218-4.743-1.168-7.978-4.966-8.814-.072-.013-.132-.146 0-.172 3.213-.572 6.458-1.925 7.614-6.823 1.254-5.3-2.632-8.21-7.095-7.904L19.968 24.99c-.37 1.35-1.754 2.483-3.067 2.483h-2.623zM54.228 20.877c-.247-.825-.519-1.427-.91-1.918-.051-.069-.062-.153.029-.18 3.173-.982 5.252-2.996 6.134-6.407 1.162-4.514-1.673-8.105-8.826-8.105H40.023l-6.928 26.901c-.119.46.148.832.596.832h6.642l6.02-23.377c.647 0 1.26-.028 2.788-.028 2.563 0 3.508 1.587 2.957 3.73-.729 2.82-2.904 4.405-5.492 4.405h-.981l2.766 13.42c.329 1.309.985 1.85 2.482 1.85h5.933l-2.578-11.123zM141.733 22.54c-2.78 6.514.849 9.46 8.238 9.46 6.736 0 10.483-1.567 12.085-7.64.55-2.073.196-4.313-1.107-5.695-2.526-2.684-7.37-3.19-9.074-4.744-.867-.791-.858-1.896-.609-2.85.46-1.747 1.665-2.704 3.608-2.704 3.049 0 3.128 1.839 2.374 4.016h6.54c1.535-4.55-.475-8.116-8.179-8.116-6.476 0-9.975 2.493-11.234 7.26-.347 1.307-.22 3.444.582 4.78 1.783 2.985 6.493 3.356 9.1 5.13 1.133.77 1.173 1.815.87 2.96-.588 2.226-1.727 3.288-4.002 3.288-2.188 0-3.499-1.248-2.246-5.145h-6.946z"
            fill="#000" />
    </g>
</svg>