<svg width="100%" height="100%" viewBox="0 0 270 270" fill="none" xmlns="http://www.w3.org/2000/svg">
<g clip-path="url(#clip0_44_709)">
<path d="M206.723 43.0298C201.276 43.0499 195.827 43.1714 190.38 43.3055C183.382 43.4784 176.375 43.3832 169.374 43.3832C159.259 43.3832 149.144 43.3832 139.03 43.3832C138.334 43.3832 137.767 43.8381 137.767 44.397C137.767 44.9546 138.333 45.407 139.03 45.407C159.264 45.8995 179.488 45.8318 199.718 46.189C203.609 46.2579 207.499 46.2541 211.391 46.2554C213.846 46.2566 216.275 46.2629 218.711 46.6037C223.49 47.2729 228.106 48.9208 232.235 51.4083C241.187 56.8005 247.57 66.0248 249.642 76.2303C250.502 80.4722 250.4 84.7441 250.411 89.0486C250.422 93.7817 250.525 98.4459 249.446 103.09C246.623 115.253 237.63 125.592 225.852 129.884C220.353 131.888 214.852 132.1 209.057 132.165C203.61 132.227 198.161 132.199 192.715 132.199C174.818 132.199 156.925 132.199 139.03 132.199C138.334 132.199 137.767 132.654 137.767 133.213C137.767 133.77 138.333 134.223 139.03 134.223C158.481 134.714 177.933 134.714 197.385 134.714C201.276 134.714 205.166 134.708 209.057 134.752C212.494 134.789 215.921 134.918 219.34 134.505C225.184 133.799 230.861 131.828 235.886 128.772C245.399 122.986 252.306 113.417 254.61 102.525C255.554 98.0687 255.488 93.5774 255.498 89.0486C255.51 83.585 255.518 78.2516 254.04 72.9396C250.55 60.3907 240.883 50.2792 228.724 45.7153C221.409 42.9697 214.429 43.0035 206.723 43.0298Z" fill="black"/>
<path d="M206.723 136.264C201.276 136.284 195.827 136.406 190.38 136.54C183.382 136.713 176.375 136.618 169.374 136.618C159.259 136.618 149.144 136.618 139.03 136.618C138.334 136.618 137.767 137.072 137.767 137.631C137.767 138.189 138.333 138.641 139.03 138.641C159.264 139.133 179.488 139.065 199.718 139.423C203.609 139.492 207.499 139.488 211.391 139.49C213.846 139.49 216.275 139.497 218.711 139.838C223.49 140.506 228.106 142.155 232.235 144.643C241.187 150.035 247.57 159.258 249.642 169.465C250.502 173.707 250.4 177.978 250.411 182.283C250.422 187.016 250.525 191.68 249.446 196.324C246.623 208.487 237.63 218.827 225.852 223.119C220.353 225.123 214.852 225.334 209.057 225.4C203.61 225.461 198.161 225.432 192.715 225.432C174.818 225.432 156.925 225.432 139.03 225.432C138.334 225.432 137.767 225.888 137.767 226.446C137.767 227.005 138.333 227.456 139.03 227.456C158.481 227.948 177.933 227.948 197.385 227.948C201.276 227.948 205.166 227.942 209.057 227.985C212.494 228.024 215.921 228.153 219.34 227.739C225.184 227.034 230.861 225.062 235.886 222.006C245.399 216.22 252.306 206.65 254.61 195.759C255.554 191.302 255.488 186.812 255.498 182.283C255.51 176.819 255.518 171.486 254.04 166.173C250.55 153.624 240.883 143.514 228.724 138.95C221.409 136.204 214.429 136.238 206.723 136.264Z" fill="black"/>
<path d="M119.148 217.999H14.5V146.946H119.807" fill="black"/>
<path d="M119.148 127.618H14.5V56.5649H119.807L119.148 127.618Z" fill="black"/>
<path d="M48.5 96.1664C42 99.1664 37 101.166 27.4942 105.666C17.9884 110.166 27.4942 102.124 27.4942 102.124C27.4942 102.124 48 93.1664 48.5 92.6664C49 92.1664 48.5 92.1664 48.5 92.1664C48.5 92.1664 33.9942 86.5173 26 82.6664C18.0057 78.8156 19 77.6664 21.5 78.6664C24 79.6664 49 89.6664 54 91.6664C59 93.6664 55 93.1664 48.5 96.1664Z" fill="white"/>
<path d="M96.2099 113.666C108.71 114.481 95.1575 115.666 95.1575 115.666C95.1575 115.666 58.6853 115.666 49.9476 115.666C41.2099 115.666 51.79 115.852 54 113.666C56.2099 111.481 83.7099 112.852 96.2099 113.666Z" fill="white"/>
<path d="M131.5 30.6666C131.5 30.6666 135.5 24.6667 135 30.6666C134.5 36.6665 132.5 239.667 132.5 239.667C132.5 239.667 131.5 242.167 131.5 239.667C131.5 237.167 131.5 30.6666 131.5 30.6666Z" fill="black"/>
</g>
</svg>
