<svg width="100%" height="100%" viewBox="0 0 141 40" fill="none" xmlns="http://www.w3.org/2000/svg">
<path d="M47.1149 3.17203H51.1507C52.9352 3.17203 54.2342 3.46988 55.0479 4.06082C55.8615 4.65176 56.2683 5.59254 56.2683 6.86898C56.2683 7.67266 56.1064 8.32034 55.7875 8.812C55.4685 9.30366 54.9462 9.71969 54.2296 10.0601C55.0293 10.4146 55.6627 10.9063 56.1388 11.5303C56.6104 12.1591 56.8462 12.9391 56.8462 13.88C56.8462 14.6411 56.726 15.284 56.4856 15.7993C56.2452 16.3194 55.8984 16.7307 55.4455 17.0474C54.9924 17.3594 54.4515 17.5863 53.8182 17.7234C53.1847 17.8606 52.4821 17.9268 51.7101 17.9268H47.1149V3.17203ZM51.5714 9.71024C51.9967 9.71024 52.4127 9.6677 52.8195 9.58732C53.2264 9.50696 53.587 9.36041 53.8967 9.15713C54.211 8.95384 54.4653 8.67491 54.6549 8.32035C54.8491 7.96578 54.9462 7.51668 54.9462 6.973C54.9462 6.42933 54.8629 5.98022 54.6965 5.6351C54.5301 5.28526 54.2851 5.01106 53.9569 4.80778C53.6286 4.60449 53.2218 4.46266 52.7364 4.38702C52.2509 4.31138 51.6823 4.27356 51.0258 4.27356H48.4278V9.71024H51.5714ZM48.4324 16.8205H51.8487C53.1293 16.8205 54.0586 16.5794 54.6456 16.0972C55.2327 15.6149 55.524 14.8491 55.524 13.7995C55.524 13.3788 55.4455 12.9817 55.2929 12.613C55.1403 12.2442 54.8953 11.9275 54.5624 11.6627C54.2296 11.398 53.8043 11.19 53.2818 11.0387C52.7641 10.8874 52.1446 10.8165 51.4234 10.8165H48.4278V16.8252L48.4324 16.8205Z" fill="#3C3C3C"/>
<path d="M67.1371 7.50237C66.832 6.4103 66.3883 5.56879 65.8103 4.96839C65.2325 4.36799 64.5021 4.07017 63.6237 4.07017C62.9026 4.07017 62.2877 4.23562 61.7746 4.57128C61.2614 4.90694 60.836 5.3655 60.494 5.95172C60.1519 6.53794 59.9069 7.22816 59.7451 8.01766C59.5833 8.80716 59.5046 9.65338 59.5046 10.5516C59.5046 11.4499 59.5833 12.2961 59.7451 13.0856C59.9069 13.8752 60.1565 14.5653 60.5033 15.1515C60.85 15.7378 61.2937 16.1964 61.83 16.532C62.3709 16.8676 63.0135 17.0331 63.7577 17.0331C64.331 17.0331 64.8211 16.9338 65.2279 16.7353C65.6347 16.5367 65.9767 16.2767 66.2588 15.9505C66.5407 15.6242 66.7673 15.2413 66.9477 14.8064C67.1279 14.3715 67.2758 13.913 67.396 13.4354L68.6349 13.6623C68.5009 14.3148 68.3114 14.9199 68.0663 15.4682C67.8213 16.0215 67.5023 16.4942 67.1187 16.8865C66.7303 17.2836 66.2634 17.5862 65.7086 17.8085C65.1538 18.0259 64.4975 18.1347 63.7393 18.1347C62.861 18.1347 62.0797 17.955 61.3908 17.5956C60.7067 17.2364 60.1241 16.7211 59.6526 16.0545C59.1811 15.3879 58.8159 14.589 58.5616 13.6623C58.3073 12.7358 58.1826 11.7004 58.1826 10.5564C58.1826 9.41228 58.3073 8.37694 58.5616 7.45035C58.8159 6.52374 59.1765 5.72951 59.6526 5.0582C60.1241 4.39162 60.7067 3.87631 61.3908 3.51702C62.075 3.15773 62.861 2.97811 63.7393 2.97811C64.3772 2.97811 64.9504 3.08683 65.459 3.3043C65.9675 3.52177 66.4067 3.82431 66.7858 4.20252C67.1649 4.58545 67.4792 5.03929 67.7335 5.55933C67.9878 6.08408 68.1912 6.64667 68.353 7.24707L67.1325 7.5118L67.1371 7.50237Z" fill="#3C3C3C"/>
<path d="M79.3883 7.46441C79.282 7.00111 79.1294 6.56146 78.9306 6.14544C78.7318 5.72942 78.4776 5.3701 78.1724 5.06281C77.8673 4.75551 77.5067 4.51443 77.0953 4.33951C76.6839 4.16459 76.2077 4.07476 75.676 4.07476C75.0381 4.07476 74.4603 4.22602 73.947 4.52386C73.434 4.8217 72.9948 5.25665 72.6296 5.81923C72.2644 6.38654 71.9823 7.06728 71.7789 7.86151C71.5801 8.66047 71.4784 9.554 71.4784 10.5468C71.4784 11.3363 71.5432 12.1211 71.6772 12.8964C71.8113 13.6716 72.0517 14.3667 72.3984 14.9812C72.7451 15.5958 73.212 16.0874 73.8084 16.461C74.4001 16.8344 75.1629 17.0235 76.0967 17.0235C76.6052 17.0235 77.0675 16.9337 77.4837 16.7493C77.9043 16.565 78.2603 16.3097 78.5515 15.9835C78.8428 15.6572 79.0692 15.279 79.231 14.8488C79.3929 14.4187 79.4715 13.9601 79.4715 13.4684V12.1211H75.8332V11.0195H80.789V17.9264H79.6518V16.4752H79.6102C79.1849 17.0472 78.6717 17.4679 78.08 17.7326C77.4883 17.9973 76.6931 18.1298 75.6946 18.1298C74.8948 18.1298 74.155 17.9642 73.4755 17.6286C72.796 17.293 72.2089 16.8061 71.7188 16.1679C71.2241 15.5296 70.8405 14.7354 70.5677 13.7993C70.2949 12.8585 70.1563 11.7759 70.1563 10.5515C70.1563 9.32705 70.3043 8.24445 70.5954 7.30366C70.8867 6.36288 71.2889 5.57338 71.7927 4.93516C72.2966 4.29693 72.893 3.81001 73.5726 3.47436C74.2521 3.1387 74.978 2.97323 75.75 2.97323C76.4157 2.97323 77.0213 3.07723 77.5668 3.28997C78.1124 3.50271 78.5931 3.79582 79.0045 4.1693C79.416 4.54277 79.7581 4.9919 80.0355 5.51666C80.3083 6.04142 80.5071 6.61817 80.6272 7.2422L79.3883 7.46915V7.46441Z" fill="#3C3C3C"/>
<path d="M47.1515 37.8154V21.6802H51.5017C53.3647 21.6802 54.7563 22.101 55.6623 22.9424C56.5731 23.784 57.0307 24.9753 57.0307 26.507C57.0307 28.0388 56.5731 29.2302 55.6623 30.0716C54.7517 30.9131 53.3647 31.3338 51.5017 31.3338H50.1703V37.8154H47.1515ZM50.1657 28.7857H51.7837C53.2677 28.7857 54.012 28.0246 54.012 26.507C54.012 24.9895 53.2677 24.2284 51.7837 24.2284H50.1657V28.7857Z" fill="#3C3C3C"/>
<path d="M58.9147 37.8154V21.6802H61.9289V35.0875H66.7783V37.8154H58.9147Z" fill="#3C3C3C"/>
<path d="M68.4169 37.8154L72.3279 21.6802H76.1972L79.9972 37.8154H77.1126L76.3498 34.421H72.1753L71.3246 37.8154H68.4169ZM72.7207 31.6932H75.7165L74.2509 25.1692H74.2094L72.7253 31.6932H72.7207Z" fill="#3C3C3C"/>
<path d="M89.6902 21.6802V24.408H86.1721V37.8154H83.158V24.408H79.6399V21.6802H89.6902Z" fill="#3C3C3C"/>
<path d="M95.4243 21.6802H92.4101V37.8154H95.4243V21.6802Z" fill="#3C3C3C"/>
<path d="M98.6075 37.8154V21.6802H101.908L106.101 31.244H106.148V21.6802H108.903V37.8154H106.018L101.405 27.4006H101.363V37.8154H98.6075Z" fill="#3C3C3C"/>
<path d="M115.088 21.6802H112.073V37.8154H115.088V21.6802Z" fill="#3C3C3C"/>
<path d="M117.832 26.8663C117.832 25.8688 117.956 25.0274 118.201 24.3418C118.446 23.6564 118.793 23.1033 119.228 22.6777C119.667 22.2522 120.189 21.945 120.799 21.7511C121.414 21.5573 122.08 21.4581 122.811 21.4581C123.541 21.4581 124.211 21.5573 124.822 21.7511C125.431 21.945 125.959 22.2522 126.393 22.6777C126.828 23.1033 127.174 23.6564 127.419 24.3418C127.664 25.0274 127.789 25.8688 127.789 26.8663V32.6339C127.789 33.6315 127.664 34.473 127.419 35.1584C127.17 35.844 126.828 36.3971 126.393 36.8225C125.954 37.248 125.431 37.5554 124.822 37.7492C124.211 37.943 123.541 38.0376 122.811 38.0376C122.08 38.0376 121.414 37.943 120.799 37.7492C120.189 37.5554 119.662 37.248 119.228 36.8225C118.788 36.3971 118.446 35.844 118.201 35.1584C117.952 34.473 117.832 33.6315 117.832 32.6339V26.8663ZM120.846 33.0358C120.846 33.9293 121.021 34.5344 121.368 34.8464C121.72 35.1584 122.2 35.3144 122.811 35.3144C123.421 35.3144 123.902 35.1584 124.253 34.8464C124.604 34.5344 124.776 33.9293 124.776 33.0358V26.4645C124.776 25.571 124.6 24.9658 124.253 24.6538C123.902 24.3418 123.421 24.1858 122.811 24.1858C122.2 24.1858 121.72 24.3418 121.368 24.6538C121.017 24.9658 120.846 25.571 120.846 26.4645V33.0358Z" fill="#3C3C3C"/>
<path d="M130.4 37.8154V21.6802H133.702L137.899 31.2441H137.94V21.6802H140.696V37.8154H137.811L133.197 27.4006H133.156V37.8154H130.4Z" fill="#3C3C3C"/>
<path d="M22.7331 40.0004L19.7143 15.8758L29.5335 20.1589L22.7331 40.0004Z" fill="#74716E"/>
<path d="M22.7315 40L19.7127 15.8753L0.0883789 7.9472L22.7315 40Z" fill="#3C3C3C" fill-opacity="0.0627451"/>
<path d="M41.532 7.95194L29.5355 20.1584L22.7352 40L41.532 7.95194Z" fill="#DBDBDA"/>
<path d="M19.7143 15.8758L41.53 7.95194L29.5335 20.1589L19.7143 15.8758Z" fill="#F6F6F5"/>
<path d="M0.0883789 7.95194H41.5284L19.7127 15.8753L0.0883789 7.95194Z" fill="#6CDDBB"/>
<path d="M19.7127 15.8753L0.0883789 7.95194L21.9178 -0.000244141L41.5284 7.95194L19.7127 15.8753Z" fill="#3C3C3C"/>
</svg>
