<svg width="100%" height="100%" version="1.1" viewBox="0 0 29.79648 12.48857" xmlns="http://www.w3.org/2000/svg">
<title>Sherwin-Williams logo</title>
<desc>American paint and coating corporation</desc>
 <g transform="translate(-101.8788 -90.3037)" fill="#3C3C3C">
  <path d="m105.0221 90.3037c-0.96242 0-2.08657 0.433586-2.08657 1.6553 0 0.795734 0.55595 1.101328 1.09372 1.397 0.44053 0.241763 0.85626 0.470297 0.85626 0.954484 0 0.636985-0.56919 0.922073-1.13374 0.922073-0.50006 0-0.96838-0.187854-1.37352-0.370416-0.0248 0.0807-0.24441 0.79375-0.26723 0.868494 0.56092 0.196784 1.09174 0.299972 1.57526 0.299972 0.69387 0 2.30783-0.178594 2.30783-1.832571 0-0.862541-0.61185-1.217083-1.1516-1.530283-0.41076-0.238125-0.79871-0.463021-0.79871-0.878086 0-0.475258 0.5037-0.688248 1.00277-0.688248 0.37902 0 0.79673 0.103518 1.15888 0.27682 0.0228-0.07739 0.22324-0.764976 0.24507-0.838729-0.40515-0.15445-0.88338-0.23581-1.42842-0.23581"/>
  <path d="m107.0939 91.48576h0.89793l-0.37835 1.777669h1.80842l0.37836-1.777669h0.89793l-0.9363 4.39969h-0.89793l0.41044-1.928813h-1.80843l-0.41043 1.928813h-0.89793z"/>
  <path d="m111.4634 91.48576h2.63558l-0.13461 0.693208h-1.75088l-0.23085 1.084461h1.56501l-0.14122 0.693208h-1.57129l-0.2626 1.235274h1.76973l-0.15379 0.693539h-2.66799z"/>
  <path d="m115.3834 93.36394h0.32709c0.48088 0 1.06462-0.144859 1.06462-0.724627 0-0.460375-0.40416-0.460375-0.76994-0.460375h-0.37207zm-0.51296-1.878211h1.058c0.82748 0 1.78296-0.01224 1.78296 1.040144 0 0.756047-0.57745 1.159536-1.30803 1.172104v0.0129c0.24341 0.01224 0.3972 0.163711 0.45541 0.40349l0.42929 1.771055h-0.94291l-0.21795-1.03386c-0.10253-0.466328-0.0771-0.794081-0.56423-0.794081h-0.34032l-0.39092 1.827941h-0.8976z"/>
  <path d="m118.2277 91.48576h0.89793l0.13461 3.372114h0.0129l1.48795-3.372114h1.20551l0.0192 3.372114h0.0132l1.58353-3.372114h0.93035l-2.13619 4.39969h-1.12249l-0.0447-3.517305h-0.0126l-1.57758 3.517305h-1.10959z"/>
  <path d="m125.006 91.48576h0.93662l-0.94257 4.39969h-0.93663z"/>
  <path d="m126.7702 91.48576h1.1354l0.95514 3.340695h0.0132l0.73124-3.340695h0.84667l-0.96871 4.39969h-1.15424l-0.93629-3.372115h-0.0132l-0.7114 3.372115h-0.85957z"/>
  <path d="m131.0727 102.0904c0.0711 0 0.11906-0.0119 0.11906-0.0913 0-0.0704-0.0754-0.079-0.13394-0.079h-0.10484v0.17032zm-0.26789-0.28409h0.25962c0.17595 0 0.27583 0.0516 0.27583 0.20637 0 0.12568-0.0764 0.17595-0.18289 0.18422l0.18289 0.29964h-0.15213l-0.16438-0.2927h-0.0708v0.2927h-0.14817zm0.24937 0.83112c0.24573 0 0.44219-0.19645 0.44219-0.48353 0-0.28575-0.19646-0.48352-0.44219-0.48352-0.24937 0-0.44218 0.19777-0.44218 0.48352 0 0.28708 0.19281 0.48353 0.44218 0.48353m0-1.1043c0.34231 0 0.62111 0.27847 0.62111 0.62077 0 0.34264-0.2788 0.62111-0.62111 0.62111-0.34263 0-0.62078-0.27847-0.62078-0.62111 0-0.3423 0.27815-0.62077 0.62078-0.62077"/>
  <path d="m106.3602 101.4856-0.0827-0.0139s-0.0222-4.205219-0.0225-4.274011h-1.37584c-0.0179 0.04299-1.76146 4.287241-1.76146 4.287241l-0.083-0.0119s-0.15644-4.208855-0.15908-4.275331h-0.99682c4e-3 0.07276 0.32775 5.486471 0.33172 5.551621h1.26339c0.0179-0.043 1.86795-4.472783 1.86795-4.472783l0.083 0.01323s0.0519 4.390763 0.0529 4.459553h1.27761c0.0185-0.0407 2.46526-5.454717 2.50891-5.551621h-1.02857c-0.0185 0.04167-1.87556 4.287901-1.87556 4.287901"/>
  <path d="m109.2586 98.31694h0.87213l-0.87808 4.400021h-0.87181z"/>
  <path d="m110.9058 98.31694h0.83608l-0.74646 3.706811h1.63579l-0.14287 0.69321h-2.46658z"/>
  <path d="m113.8914 98.31694h0.83608l-0.74645 3.706811h1.63611l-0.1432 0.69321h-2.46625z"/>
  <path d="m116.8353 98.31694h0.8718l-0.87775 4.400021h-0.87148z"/>
  <path d="m119.0924 101.0149h1.28985l-0.2626-1.915911h-0.0242zm0.69916-2.697755h0.92538l0.75804 4.400025h-0.83543l-0.14386-1.00906h-1.7737l-0.53116 1.00906h-0.92571z"/>
  <path d="m122.8088 98.31694h1.37947l0.28047 3.170701h0.0122l1.64207-3.170701h1.3917l-0.88999 4.400021h-0.88404l0.78813-3.643312h-0.0119l-1.8868 3.643312h-0.80038l-0.33437-3.643312h-0.0119l-0.76398 3.643312h-0.79474z"/>
  <path d="m130.2868 99.16185c-0.2454-0.132291-0.56125-0.22688-0.86618-0.22688-0.29799 0-0.6985 0.126008-0.6985 0.504031 0 0.706436 1.42114 0.661786 1.42114 1.885156 0 1.07752-0.80003 1.46811-1.71417 1.46811-0.39952 0-0.8116-0.10054-1.18764-0.2454l0.21497-0.75043c0.32213 0.15743 0.66245 0.30262 1.02063 0.30262 0.40051 0 0.79441-0.21431 0.79441-0.68693 0-0.79441-1.42081-0.66807-1.42081-1.840834 0-0.926372 0.75208-1.329531 1.55211-1.329531 0.3648 0 0.7405 0.04994 1.08082 0.19513z"/>
 </g>
</svg>
