<svg width="100%" height="100%" viewBox="0 0 156 40" fill="none" xmlns="http://www.w3.org/2000/svg">
<path d="M147.047 30.2547C145.481 30.2547 144.067 29.9204 142.807 29.252C141.566 28.5837 140.583 27.6289 139.857 26.3876C139.15 25.1464 138.798 23.6951 138.798 22.0337C138.798 20.3915 139.161 18.9497 139.886 17.7085C140.611 16.4481 141.605 15.4837 142.865 14.8155C144.125 14.1471 145.538 13.8129 147.105 13.8129C148.67 13.8129 150.083 14.1471 151.343 14.8155C152.603 15.4837 153.597 16.4481 154.322 17.7085C155.049 18.9497 155.411 20.3915 155.411 22.0337C155.411 23.676 155.038 25.1273 154.294 26.3876C153.569 27.6289 152.566 28.5837 151.286 29.252C150.026 29.9204 148.613 30.2547 147.047 30.2547ZM147.047 26.0153C147.982 26.0153 148.775 25.6716 149.425 24.9841C150.093 24.2967 150.427 23.3132 150.427 22.0337C150.427 20.7543 150.102 19.7708 149.453 19.0833C148.823 18.3959 148.039 18.0521 147.105 18.0521C146.149 18.0521 145.357 18.3959 144.726 19.0833C144.097 19.7517 143.782 20.7352 143.782 22.0337C143.782 23.3132 144.087 24.2967 144.698 24.9841C145.329 25.6716 146.111 26.0153 147.047 26.0153Z" fill="url(#paint0_linear_135_1002)"/>
<path d="M125.228 16.3049C125.687 15.5601 126.346 14.9587 127.205 14.5003C128.064 14.042 129.048 13.8129 130.155 13.8129C131.473 13.8129 132.666 14.1471 133.736 14.8155C134.805 15.4837 135.645 16.4385 136.257 17.6799C136.886 18.9211 137.202 20.3628 137.202 22.0051C137.202 23.6473 136.886 25.0987 136.257 26.3589C135.645 27.6003 134.805 28.5645 133.736 29.252C132.666 29.9204 131.473 30.2547 130.155 30.2547C129.029 30.2547 128.045 30.0349 127.205 29.5957C126.365 29.1375 125.706 28.536 125.228 27.7912V30.0255H120.33V8.82879H125.228V16.3049ZM132.218 22.0051C132.218 20.7829 131.874 19.8281 131.186 19.1407C130.518 18.4341 129.687 18.0808 128.694 18.0808C127.721 18.0808 126.89 18.4341 126.202 19.1407C125.534 19.8472 125.2 20.8116 125.2 22.0337C125.2 23.2559 125.534 24.2203 126.202 24.9268C126.89 25.6333 127.721 25.9867 128.694 25.9867C129.668 25.9867 130.499 25.6333 131.186 24.9268C131.874 24.2012 132.218 23.2272 132.218 22.0051Z" fill="url(#paint1_linear_135_1002)"/>
<path d="M110.402 13.8701C112.388 13.8701 113.964 14.4717 115.129 15.6748C116.313 16.8777 116.905 18.5487 116.905 20.6875V30.0255H112.035V21.3463C112.035 20.3151 111.758 19.5225 111.204 18.9688C110.67 18.3959 109.925 18.1095 108.97 18.1095C108.015 18.1095 107.261 18.3959 106.707 18.9688C106.173 19.5225 105.905 20.3151 105.905 21.3463V30.0255H101.036V21.3463C101.036 20.3151 100.759 19.5225 100.205 18.9688C99.6704 18.3959 98.9256 18.1095 97.9708 18.1095C97.016 18.1095 96.2617 18.3959 95.708 18.9688C95.1733 19.5225 94.906 20.3151 94.906 21.3463V30.0255H90.0077V14.042H94.906V16.0471C95.4024 15.3788 96.0517 14.8536 96.8537 14.4717C97.6557 14.0707 98.5628 13.8701 99.5749 13.8701C100.778 13.8701 101.847 14.128 102.783 14.6436C103.738 15.1592 104.483 15.8944 105.017 16.8492C105.571 15.9707 106.325 15.2547 107.28 14.7008C108.235 14.1471 109.276 13.8701 110.402 13.8701Z" fill="url(#paint2_linear_135_1002)"/>
<path d="M79.0452 30.2547C77.4793 30.2547 76.0661 29.9204 74.8059 29.252C73.5645 28.5837 72.5811 27.6289 71.8555 26.3876C71.1489 25.1464 70.7956 23.6951 70.7956 22.0337C70.7956 20.3915 71.1584 18.9497 71.8841 17.7085C72.6097 16.4481 73.6028 15.4837 74.8631 14.8155C76.1235 14.1471 77.5365 13.8129 79.1024 13.8129C80.6683 13.8129 82.0815 14.1471 83.3417 14.8155C84.6021 15.4837 85.5951 16.4481 86.3208 17.7085C87.0464 18.9497 87.4092 20.3915 87.4092 22.0337C87.4092 23.676 87.0369 25.1273 86.2921 26.3876C85.5664 27.6289 84.5639 28.5837 83.2845 29.252C82.0241 29.9204 80.6111 30.2547 79.0452 30.2547ZM79.0452 26.0153C79.9808 26.0153 80.7733 25.6716 81.4227 24.9841C82.0909 24.2967 82.4252 23.3132 82.4252 22.0337C82.4252 20.7543 82.1005 19.7708 81.4512 19.0833C80.8211 18.3959 80.0381 18.0521 79.1024 18.0521C78.1476 18.0521 77.3552 18.3959 76.7249 19.0833C76.0948 19.7517 75.7797 20.7352 75.7797 22.0337C75.7797 23.3132 76.0852 24.2967 76.6963 24.9841C77.3265 25.6716 78.1095 26.0153 79.0452 26.0153Z" fill="url(#paint3_linear_135_1002)"/>
<path d="M63.4552 30.0255L56.6951 21.1457V30.0255H51.7969V9.91727H56.6951V18.7396L63.3979 9.91727H69.1553L61.3641 19.7708L69.4417 30.0255H63.4552Z" fill="url(#paint4_linear_135_1002)"/>
<path d="M39.6681 17.4681C41.0664 18.8665 41.0664 21.1335 39.6681 22.5319L23.2487 38.9513C21.8503 40.3496 19.5832 40.3496 18.1849 38.9513L16.0876 36.8539C14.6893 35.4556 14.6893 33.1885 16.0876 31.7903L25.346 22.5319C26.7443 21.1335 26.7443 18.8665 25.346 17.4681L16.0876 8.20975C14.6893 6.81147 14.6893 4.54441 16.0876 3.14613L18.1849 1.04871C19.5833 -0.34957 21.8503 -0.349569 23.2487 1.04871L39.6681 17.4681Z" fill="url(#paint5_linear_135_1002)"/>
<path d="M7.05981 27.6983C8.45809 29.0965 10.7252 29.0965 12.1234 27.6983L17.4177 22.4039C18.816 21.0056 18.816 18.7385 17.4177 17.3403L12.1234 12.046C10.7251 10.6477 8.45809 10.6477 7.05981 12.046L1.76551 17.3403C0.367226 18.7385 0.367228 21.0056 1.76551 22.4039L7.05981 27.6983Z" fill="url(#paint6_linear_135_1002)"/>
<defs>
<linearGradient id="paint0_linear_135_1002" x1="-564.809" y1="-33.6046" x2="-564.809" y2="63.7088" gradientUnits="userSpaceOnUse">
<stop stop-color="#333333"/>
<stop offset="1" stop-color="#444444"/>
</linearGradient>
<linearGradient id="paint1_linear_135_1002" x1="-386.815" y1="-16.4825" x2="-386.815" y2="58.1936" gradientUnits="userSpaceOnUse">
<stop stop-color="#333333"/>
<stop offset="1" stop-color="#444444"/>
</linearGradient>
<linearGradient id="paint2_linear_135_1002" x1="-67.977" y1="-34.342" x2="-67.977" y2="64.6966" gradientUnits="userSpaceOnUse">
<stop stop-color="#333333"/>
<stop offset="1" stop-color="#444444"/>
</linearGradient>
<linearGradient id="paint3_linear_135_1002" x1="68.394" y1="-33.6046" x2="68.394" y2="63.7088" gradientUnits="userSpaceOnUse">
<stop stop-color="#333333"/>
<stop offset="1" stop-color="#444444"/>
</linearGradient>
<linearGradient id="paint4_linear_135_1002" x1="231.003" y1="-19.7278" x2="231.003" y2="59.8418" gradientUnits="userSpaceOnUse">
<stop stop-color="#333333"/>
<stop offset="1" stop-color="#444444"/>
</linearGradient>
<linearGradient id="paint5_linear_135_1002" x1="380.406" y1="3.33334e-07" x2="380.406" y2="40" gradientUnits="userSpaceOnUse">
<stop stop-color="#333333"/>
<stop offset="1" stop-color="#444444"/>
</linearGradient>
<linearGradient id="paint6_linear_135_1002" x1="78.0639" y1="1.02857e-05" x2="78.0639" y2="40" gradientUnits="userSpaceOnUse">
<stop stop-color="#333333"/>
<stop offset="1" stop-color="#444444"/>
</linearGradient>
</defs>
</svg>
