<svg width="24" height="24" viewBox="0 0 24 24" fill="none" xmlns="http://www.w3.org/2000/svg">
<g clip-path="url(#clip0_45_722)">
<path d="M21.5834 0.753006H2.41341C2.40741 0.753006 2.40066 0.753006 2.39316 0.753006C1.49391 0.753006 0.764162 1.47601 0.753662 2.37226V21.6263C0.764162 22.5233 1.49391 23.247 2.39316 23.247C2.40066 23.247 2.40741 23.247 2.41491 23.247H21.5812C21.5872 23.247 21.5947 23.247 21.6022 23.247C22.5022 23.247 23.2334 22.5248 23.2477 21.6278V21.6263V2.37376C23.2334 1.47601 22.5022 0.753006 21.6014 0.753006C21.5939 0.753006 21.5872 0.753006 21.5797 0.753006H21.5834ZM7.42491 19.9215H4.08441V9.18826H7.42491V19.9215ZM5.75541 7.71976C4.68666 7.71976 3.82116 6.85351 3.82116 5.78551C3.82116 4.71751 4.68741 3.85126 5.75541 3.85126C6.82341 3.85126 7.68966 4.71676 7.68966 5.78476C7.68966 5.78551 7.68966 5.78626 7.68966 5.78776C7.68966 6.85501 6.82416 7.72051 5.75691 7.72051C5.75616 7.72051 5.75541 7.72051 5.75466 7.72051L5.75541 7.71976ZM19.9169 19.9215H16.5862V14.7023C16.5862 13.4573 16.5607 11.856 14.8507 11.856C13.1137 11.856 12.8489 13.2105 12.8489 14.6108V19.9223H9.51816V9.18901H12.7177V10.6523H12.7612C13.3822 9.60601 14.5057 8.91601 15.7904 8.91601C15.8362 8.91601 15.8812 8.91676 15.9262 8.91826H15.9194C19.2944 8.91826 19.9184 11.1398 19.9184 14.031V19.9223L19.9169 19.9215Z" fill="currentColor"/>
</g>
<defs>
<clipPath id="clip0_45_722">
<rect width="24" height="24" fill="currentColor"/>
</clipPath>
</defs>
</svg>
