<svg width="100%" height="100%" viewBox="0 0 130 40" fill="none" xmlns="http://www.w3.org/2000/svg">
<path d="M2.33473 1.89082C2.33473 1.56844 1.45715 0.741475 1.18334 0.741475H0.432129V0.00561523H4.80601L9.32031 11.3098H9.41157L14.1576 0.00561523H18.0681V0.741475H17.366C17.0922 0.741475 16.2146 1.56844 16.2146 1.89082V13.153C16.2146 13.4753 17.0922 14.3023 17.366 14.3023H18.0681V15.0452H12.283V14.3023H13.0202C13.294 14.3023 14.1716 13.4753 14.1716 13.153V2.21319L8.68845 15.2624L3.2404 1.98192V13.1039C3.2404 13.4263 4.11798 14.2533 4.39179 14.2533H5.12896V14.9891H0.432129V14.2533H1.1342C1.408 14.2533 2.28559 13.4263 2.28559 13.1039L2.33473 1.89082Z" fill="#3C3C3C"/>
<path d="M24.3937 8.59765C24.6675 7.08389 24.3937 5.75233 22.7298 5.75233C20.7991 5.75233 19.8303 7.31516 19.8303 9.56478C19.8303 11.8144 21.2344 13.5174 23.4248 13.5174C24.0566 13.5825 24.6929 13.4495 25.2453 13.1367C25.7977 12.8239 26.2387 12.347 26.5069 11.7724H27.1107C26.4648 13.8748 25.173 15.2204 22.7298 15.2204C20.0198 15.2204 18.2646 12.9427 18.2646 10.1395C18.2646 7.0138 20.3357 4.94639 22.9194 4.94639C23.5626 4.9149 24.205 5.02401 24.8016 5.26611C25.3983 5.50821 25.9347 5.87745 26.3735 6.34803L24.9694 8.5556L24.3937 8.59765Z" fill="#3C3C3C"/>
<path d="M44.0516 2.99111C44.2174 2.99406 44.3821 2.96329 44.5355 2.90067C44.689 2.83805 44.8282 2.74489 44.9444 2.62686C45.0607 2.50884 45.1517 2.36842 45.2118 2.21417C45.2719 2.05992 45.3 1.89506 45.2943 1.72963C45.3034 1.56434 45.2775 1.39898 45.2183 1.24435C45.1591 1.08972 45.0679 0.949298 44.9506 0.832241C44.8333 0.715184 44.6926 0.624128 44.5377 0.565016C44.3828 0.505903 44.2172 0.480064 44.0516 0.489184C43.8773 0.476221 43.7021 0.499309 43.5371 0.557005C43.3721 0.614701 43.2208 0.705762 43.0927 0.824494C42.9645 0.943226 42.8623 1.08707 42.7924 1.24704C42.7225 1.407 42.6865 1.57964 42.6865 1.75416C42.6865 1.92868 42.7225 2.10132 42.7924 2.26129C42.8623 2.42125 42.9645 2.5651 43.0927 2.68383C43.2208 2.80256 43.3721 2.89362 43.5371 2.95132C43.7021 3.00901 43.8773 3.0321 44.0516 3.01914V2.99111Z" fill="#3C3C3C"/>
<path d="M57.8683 14.2533C57.5945 14.2533 56.8082 13.5524 56.8082 13.2441V7.81974C56.8247 7.45691 56.7661 7.09456 56.6361 6.75534C56.5061 6.41612 56.3073 6.1073 56.0524 5.84818C55.7974 5.58906 55.4917 5.3852 55.1542 5.24933C54.8168 5.11346 54.4549 5.04851 54.0912 5.05852C52.343 5.05852 51.4233 6.0747 50.2719 7.2661L49.8998 5.23372H46.8177V5.93454H47.4145C47.6883 5.93454 48.4746 6.6704 48.4746 6.95073V13.153C48.4746 13.4753 47.6883 14.1622 47.4145 14.1622H46.221C45.9402 14.1622 45.1609 13.4613 45.1609 13.153V5.23372H41.6505V5.93454H42.2473C42.5281 5.93454 43.3074 6.6704 43.3074 6.95073V13.153C43.3074 13.4753 42.5281 14.1622 42.2473 14.1622H41.1521C40.4781 13.8783 39.8672 13.4638 39.3548 12.9427L34.1314 6.02565L37.7681 2.11508C38.3282 1.54292 38.9809 1.06907 39.6988 0.713442H40.4008V0.00561523H34.9668V0.741475H35.704C35.9778 0.741475 36.8554 1.75065 36.6237 2.02397L31.2529 8.037V1.89082C31.2529 1.56844 32.1235 0.741475 32.4043 0.741475H33.1064V0.00561523H27.2932V0.741475H27.9953C28.2691 0.741475 29.1467 1.56844 29.1467 1.89082V13.153C29.1467 13.4753 28.2691 14.3023 27.9953 14.3023H27.2932V15.0452H33.1415V14.3023H32.4394C32.1586 14.3023 31.288 13.4753 31.288 13.153V9.20036L32.8045 7.53942L37.9717 15.0452H51.9288V14.3023H51.3742C51.1004 14.3023 50.314 13.6015 50.314 13.2861V8.27528C50.314 7.63753 52.1113 6.25692 53.4944 6.25692C53.711 6.24546 53.9274 6.28115 54.1288 6.36151C54.3301 6.44188 54.5116 6.565 54.6605 6.72234C54.8094 6.87968 54.9223 7.06748 54.9913 7.2727C55.0603 7.47793 55.0837 7.69568 55.06 7.91085V13.2441C55.06 13.5665 54.2737 14.2533 53.9999 14.2533H53.4453V14.9891H58.4229V14.2533H57.8683Z" fill="#3C3C3C"/>
<path d="M59.6656 11.5901C59.6656 12.5082 60.9995 14.4355 63.0706 14.4355C64.2712 14.4355 64.9592 14.022 64.9592 13.1039C64.9592 12.0036 63.9903 11.6322 63.1198 11.2678C62.4177 10.9874 61.8771 10.7632 61.0908 10.3917C59.8973 9.8381 58.9846 9.06019 58.9846 7.72864C58.9846 5.97659 60.0447 4.96741 61.9333 4.96741C62.9934 4.96741 63.5901 5.472 64.3273 5.472C64.6011 5.472 64.7837 5.42995 64.8749 5.19868H65.4296V8.18417H64.8328C64.6986 7.49319 64.3342 6.86783 63.7989 6.40977C63.2635 5.95172 62.5887 5.6879 61.8841 5.66122C60.7327 5.66122 60.2272 6.16581 60.2272 6.94372C60.2272 7.72163 60.824 8.09306 61.7929 8.50655C62.53 8.82892 63.0847 9.06019 63.8991 9.38257C64.9592 9.79605 66.1527 10.623 66.1527 12.1858C66.1527 14.022 64.8609 15.1293 63.0215 15.1293C61.7788 15.1293 61.0416 14.5266 60.2132 14.5266C60.0728 14.5113 59.9309 14.533 59.8015 14.5895C59.6722 14.6461 59.5599 14.7356 59.476 14.849H59.0127V11.45H59.6164L59.6656 11.5901Z" fill="#3C3C3C"/>
<path d="M66.7986 10.1395C66.7986 7.24507 68.7784 4.98843 71.2708 5.03749C71.7274 5.02045 72.1829 5.09591 72.6095 5.25935C73.0362 5.42278 73.4253 5.67079 73.7533 5.98842C74.0814 6.30605 74.3415 6.68671 74.5182 7.10745C74.6948 7.52819 74.7843 7.98028 74.7811 8.43646L74.8232 9.13728L68.3291 9.64888C68.3291 11.6252 69.7332 13.5524 71.8745 13.5524C72.5 13.6127 73.1288 13.477 73.6736 13.1643C74.2183 12.8516 74.652 12.3774 74.9145 11.8074H75.5534C74.9075 13.9099 73.7069 15.2554 71.341 15.2554C68.5959 15.2204 66.7986 12.8726 66.7986 10.1395ZM73.2014 8.57663C73.384 7.17499 73.1523 5.8154 71.2216 5.8154C69.2909 5.8154 68.4133 7.46933 68.3221 8.99011L73.2014 8.57663Z" fill="#3C3C3C"/>
<path d="M76.5643 7.08388C76.2587 6.60886 75.8291 6.22603 75.3217 5.97659H74.9075V5.23372H80.0606V5.93454H79.4639C79.1901 5.93454 78.5863 6.63536 78.5863 6.99277L80.847 12.2419L83.0585 7.04884C83.015 6.81928 82.917 6.60345 82.7729 6.41935C82.6288 6.23526 82.4427 6.08825 82.23 5.9906H81.6263V5.23372H85.5438V5.93454H85.0804C84.8487 5.93454 84.1607 6.6704 83.929 6.99277L80.6153 14.4845L78.1721 19.8668L77.3015 19.4533L79.8781 14.1201L76.5643 7.08388Z" fill="#3C3C3C"/>
<path d="M29.4556 22.7542C29.4881 23.3617 29.7079 23.9444 30.0849 24.4224C30.4619 24.9004 30.9778 25.2503 31.5618 25.4243C33.4925 27.4917 35.8444 29.6993 37.8804 31.5354C38.4488 30.5771 38.7223 29.4731 38.6667 28.3607C38.6667 26.9591 37.747 26.1532 36.2727 26.1041V25.4033H41.6154V26.1041H41.0116C40.3963 26.4744 39.9258 27.0429 39.6777 27.716C39.665 29.212 39.2188 30.6724 38.3929 31.9209C39.3592 32.7856 40.3717 33.5974 41.4259 34.3527H42.3526V35.0536H40.6887C39.9948 35.0735 39.3042 34.9513 38.6594 34.6946C38.0146 34.4378 37.4293 34.052 36.9397 33.5608C36.286 34.179 35.5134 34.658 34.6685 34.9689C33.8237 35.2797 32.9243 35.4158 32.0252 35.3689C30.8103 35.4105 29.6286 34.9688 28.7399 34.1408C27.8512 33.3129 27.3283 32.1665 27.2862 30.9538C27.2844 30.0584 27.5015 29.1761 27.9187 28.3835C28.3359 27.5909 28.9406 26.9119 29.6803 26.4054C28.9138 25.5402 28.4983 24.4207 28.5148 23.2658C28.5148 21.1003 29.919 19.9089 32.1094 19.9089C33.5136 19.9089 34.2156 20.3644 34.8686 20.3644C35.1915 20.3644 35.4232 20.3644 35.5706 20.0911H36.2165V23.5952H35.5355C35.5355 22.586 34.0612 20.5606 32.0252 20.5606C30.4245 20.5957 29.4556 21.3525 29.4556 22.7542ZM28.8097 29.9306C28.8097 32.0891 31.1125 34.1355 33.2327 34.1355C34.4048 34.1675 35.5548 33.8128 36.5044 33.1263C34.215 31.1432 32.0464 29.0253 30.0102 26.7839C29.5973 27.1929 29.2765 27.6851 29.0695 28.2278C28.8625 28.7705 28.7739 29.351 28.8097 29.9306Z" fill="#3C3C3C"/>
<path d="M57.7279 25.3752C57.7279 23.8124 55.9797 20.6868 53.1715 20.6868C50.5949 20.6868 49.0293 22.0884 48.7484 25.5154C48.6735 26.7858 48.69 28.0599 48.7976 29.3279C48.847 30.636 49.4116 31.8717 50.3686 32.7667C51.3256 33.6616 52.5978 34.1435 53.9086 34.1074C56.4852 34.1074 57.777 33.0072 58.7459 31.0309H59.5252C59.1213 32.3102 58.3075 33.4216 57.209 34.194C56.1104 34.9664 54.788 35.3571 53.4453 35.3058C49.1205 35.3058 46.3544 31.8018 46.3544 27.4917C46.3544 23.1817 48.8888 19.7827 53.0802 19.7827C54.6879 19.7827 55.7059 20.4275 56.8573 20.4275C57.033 20.4409 57.2093 20.41 57.37 20.3378C57.5307 20.2656 57.6706 20.1542 57.777 20.014H58.3317V25.3472H57.7279V25.3752Z" fill="#3C3C3C"/>
<path d="M60.5361 30.2039C60.5361 27.0292 62.7968 25.0529 65.3734 25.0529C67.95 25.0529 70.2106 27.0292 70.2106 30.2039C70.2106 33.3786 67.95 35.3689 65.3734 35.3689C64.7121 35.3595 64.0595 35.2169 63.4547 34.9497C62.8499 34.6825 62.3054 34.2962 61.8537 33.8139C61.4021 33.3316 61.0526 32.7633 60.8262 32.143C60.5998 31.5227 60.5011 30.8632 60.5361 30.2039ZM68.2589 31.8158C68.3993 30.7153 68.3993 29.6014 68.2589 28.5009C68.0764 26.9381 67.1988 25.8798 65.4085 25.8798C63.6182 25.8798 62.7828 26.9381 62.5511 28.4588C62.4107 29.557 62.4107 30.6685 62.5511 31.7667C62.7828 33.2805 63.6112 34.3878 65.4085 34.3878C67.2058 34.3878 68.0904 33.3295 68.2729 31.8158H68.2589Z" fill="#3C3C3C"/>
<path d="M86.0844 33.2665C86.0844 33.5888 86.8216 34.2826 87.0954 34.2826H87.5587V34.9835H82.6443V34.2826H83.1919C83.4727 34.2826 84.2099 33.5818 84.2099 33.2665V27.9052C84.243 27.6939 84.2273 27.4778 84.1639 27.2735C84.1004 27.0692 83.991 26.882 83.844 26.7265C83.6969 26.5709 83.5161 26.451 83.3155 26.3759C83.1149 26.3008 82.8997 26.2726 82.6864 26.2933C81.4016 26.2933 79.836 27.5408 79.836 28.1785V33.2665C79.836 33.5888 80.5381 34.2826 80.847 34.2826H81.4016V34.9835H76.4239V34.2826H76.9575C77.2313 34.2826 77.9685 33.5818 77.9685 33.2665V27.9052C77.9945 27.6915 77.9723 27.4748 77.9035 27.2708C77.8348 27.0668 77.7212 26.8807 77.5711 26.7262C77.421 26.5717 77.2382 26.4526 77.0361 26.3777C76.834 26.3028 76.6176 26.274 76.4029 26.2933C75.1111 26.2933 73.5455 27.5828 73.5455 28.2696V33.3295C73.5455 33.6519 74.2826 34.3387 74.5635 34.3387H75.1111V35.0395H70.1404V34.3387H70.6951C70.9689 34.3387 71.706 33.6379 71.706 33.3295V27.0782C71.706 26.7559 70.9689 26.0691 70.6951 26.0691H70.1404V25.3682H73.1312L73.5455 27.2534C74.6547 26.055 75.3919 25.151 77.0979 25.151C77.7167 25.0995 78.3313 25.29 78.812 25.6822C79.2928 26.0745 79.602 26.6379 79.6745 27.2534C80.868 26.055 81.6543 25.2281 83.2621 25.2281C83.6246 25.2155 83.9857 25.279 84.3221 25.4145C84.6585 25.55 84.9626 25.7546 85.2147 26.0149C85.4669 26.2752 85.6614 26.5854 85.7859 26.9255C85.9103 27.2656 85.9618 27.6281 85.937 27.9893V33.2665H86.0844Z" fill="#3C3C3C"/>
<path d="M90.4232 25.3332L90.7461 27.3095C91.0386 26.6192 91.5342 26.0338 92.1673 25.6308C92.8004 25.2279 93.5412 25.0263 94.2916 25.0529C96.6856 25.0529 98.1108 27.0292 98.1108 30.0217C98.1108 33.0142 96.4539 35.2568 94.109 35.2568C93.4247 35.3181 92.7381 35.1656 92.1445 34.8203C91.5508 34.475 91.0793 33.9541 90.7953 33.3295V37.969C90.7953 38.2913 91.5746 38.9851 91.8062 38.9851H92.4522V39.686H87.292V38.9851H87.9379C88.2117 38.9851 88.9488 38.2843 88.9488 37.969V27.0782C88.9488 26.7559 88.2117 26.0691 87.9379 26.0691H87.292V25.3682L90.4232 25.3332ZM90.7461 28.8373V31.4443C90.7461 32.1878 91.042 32.9008 91.5686 33.4265C92.0953 33.9523 92.8096 34.2476 93.5544 34.2476C95.2113 34.2476 95.9976 33.1894 96.2223 31.6756C96.3627 30.7159 96.3627 29.7409 96.2223 28.7812C96.0397 27.2184 95.1692 26.2513 93.7861 26.2513C92.1292 26.2022 91.2095 27.3516 90.7461 28.8723V28.8373Z" fill="#3C3C3C"/>
<path d="M119.292 34.3387C119.018 34.3387 118.239 33.6379 118.239 33.3295V27.9052C118.255 27.5426 118.195 27.1807 118.065 26.842C117.934 26.5032 117.736 26.1948 117.481 25.9359C117.226 25.677 116.921 25.4731 116.584 25.3369C116.247 25.2007 115.886 25.135 115.522 25.144C113.767 25.144 112.847 26.1602 111.696 27.3516L111.359 25.3752H108.27V26.0761H108.874C109.147 26.0761 109.927 26.8119 109.927 27.0923V33.2665C109.927 33.5888 109.147 34.2827 108.874 34.2827H107.673C107.399 34.2827 106.613 33.5818 106.613 33.2665V27.9963C106.613 26.0691 105.047 25.1019 102.976 25.1019C102.253 25.0559 101.529 25.1675 100.854 25.4289C100.179 25.6903 99.5684 26.0953 99.0656 26.6157L100.35 28.592H101.052C100.315 26.9381 100.863 25.8378 102.52 25.8378C104.177 25.8378 104.823 26.6157 104.823 27.9963V29.1947L102.295 29.6993C100.891 29.9726 99.1148 30.6664 99.1148 32.5937C99.0988 32.9324 99.1508 33.2709 99.2677 33.5893C99.3846 33.9076 99.5642 34.1995 99.7957 34.4476C100.027 34.6957 100.306 34.8951 100.616 35.0341C100.926 35.173 101.26 35.2488 101.6 35.2568C103.004 35.2568 104.085 34.1074 104.872 33.0983L105.103 35.0746H113.388V34.3738H112.84C112.559 34.3738 111.78 33.6729 111.78 33.3646V28.3187C111.78 27.6739 113.577 26.2933 114.953 26.2933C115.17 26.2829 115.387 26.3196 115.588 26.4008C115.79 26.482 115.971 26.6057 116.12 26.7636C116.269 26.9215 116.381 27.1097 116.45 27.3152C116.519 27.5208 116.543 27.7388 116.519 27.9543V33.2665C116.519 33.5888 115.74 34.2827 115.466 34.2827H114.869V34.9835H119.84V34.2827H119.285L119.292 34.3387ZM104.787 32.2363C104.373 32.9371 103.383 33.9322 102.393 33.9322C102.186 33.9371 101.98 33.8997 101.787 33.8224C101.594 33.7452 101.42 33.6296 101.273 33.4828C101.127 33.3359 101.012 33.1609 100.935 32.9683C100.859 32.7757 100.822 32.5695 100.828 32.3624C100.828 31.3953 101.242 30.7575 102.443 30.4352L104.787 29.8325V32.2363Z" fill="#3C3C3C"/>
<path d="M120.486 27.1693C120.18 26.6962 119.75 26.3157 119.243 26.0691H118.829V25.3682H123.996V26.0691H123.399C123.125 26.0691 122.529 26.7699 122.529 27.1273L124.782 32.3204L126.994 27.1273C126.956 26.8958 126.86 26.6776 126.715 26.4927C126.57 26.3078 126.381 26.1621 126.165 26.0691H125.562V25.3682H129.479V26.0691H129.016C128.791 26.0691 128.096 26.8049 127.864 27.1273L124.551 34.619L122.115 39.9943L121.23 39.5738L123.806 34.2406L120.486 27.1693Z" fill="#3C3C3C"/>
</svg>
