<svg width="100%" height="100%" viewBox="0 0 107 40" fill="none" xmlns="http://www.w3.org/2000/svg">
<path d="M43.8916 21.7502V10.4163H48.5499V21.9159C48.5499 23.8318 49.5312 25.0828 51.8187 25.0828C53.9437 25.0828 55.0062 23.7489 55.0062 21.833V10.4163H59.6645V21.7502C59.6645 26.1661 57.0499 28.8339 51.8187 28.8339C46.5083 28.9167 43.8916 26.2511 43.8916 21.7502ZM61.7937 14.7494H65.9624V16.6652H66.0437C67.0249 15.1657 68.3333 14.4159 70.2124 14.4159C73.1541 14.4159 74.8708 16.5824 74.8708 19.6665V28.5833H70.5395V20.4991C70.5395 19.0824 69.8041 18.082 68.4145 18.082C67.0249 18.082 66.0437 19.333 66.0437 20.9983V28.5811H61.7124V14.7472L61.7937 14.7494ZM77.077 9.33305H81.4083V12.9163H77.077V9.33305ZM77.077 14.7494H81.4083V28.5004H77.077V14.7494ZM84.7604 24.9172V18.3347H82.9624V14.7515H84.7604V10.4184H88.9291V14.7515H91.3812V18.3347H88.9291V24.0017C88.9291 25.085 89.502 25.3356 90.3999 25.3356H91.3812V28.5025C90.9729 28.5854 90.1541 28.7532 89.0104 28.7532C86.5604 28.7511 84.7604 27.9163 84.7604 24.9172ZM94.0791 29.6665H95.5499C96.777 29.6665 97.3479 29.1674 97.3479 28.2498C97.3479 27.6657 97.102 26.833 96.5312 25.4163L92.527 14.8322H97.0229L98.8208 20.6648C99.2291 21.9987 99.6375 23.8318 99.6375 23.8318H99.7187C99.7187 23.8318 100.127 21.9987 100.535 20.6648L102.333 14.8322H106.667L102.008 28.7489C100.946 31.9987 99.6375 33.082 96.9416 33.082H94.1624L94.0791 29.6665Z" fill="#3C3C3C"/>
<path d="M34.7375 27.9991V9.33305L18.8813 0V7.16652L25.0938 10.8326C25.3396 10.9983 25.3396 11.3318 25.0938 11.4167L17.7375 15.7498C17.4917 15.9155 17.2479 15.8326 17.0833 15.7498L9.72709 11.4167C9.48125 11.3339 9.48125 10.9176 9.72709 10.8326L15.9396 7.16652V0L0 9.33305V27.9991L6.04792 24.4159V17.0816C6.04792 16.8309 6.375 16.6652 6.5375 16.7481L13.8938 21.0811C14.1396 21.2468 14.2208 21.4146 14.2208 21.6652V30.3314C14.2208 30.582 13.8938 30.7477 13.7313 30.6648L7.52083 27.0008L1.47083 30.5841L17.3271 40L33.1833 30.6669L27.1354 27.0837L20.9229 30.7498C20.6771 30.9155 20.4333 30.7498 20.4333 30.4163V21.7502C20.4333 21.4996 20.5958 21.2511 20.7604 21.1661L28.1167 16.833C28.3625 16.6674 28.6063 16.833 28.6063 17.1665V24.5008L34.7375 27.9991Z" fill="#3C3C3C"/>
<path d="M17.3292 40L33.1854 30.6669L27.1375 27.0837L20.925 30.7498C20.6792 30.9155 20.4354 30.7498 20.4354 30.4163V21.7502C20.4354 21.4996 20.5979 21.2511 20.7625 21.1661L28.1187 16.833C28.3646 16.6674 28.6083 16.833 28.6083 17.1665V24.5008L34.6562 28.0841V9.33305L17.3271 19.5837L17.3292 40Z" fill="#3C3C3C"/>
<path d="M18.8813 0V7.16652L25.0938 10.8326C25.3396 10.9983 25.3396 11.3318 25.0938 11.4167L17.7375 15.7498C17.4917 15.9155 17.2479 15.8326 17.0833 15.7498L9.72709 11.4167C9.48125 11.3339 9.48125 10.9176 9.72709 10.8326L15.9396 7.16652V0L0 9.33305L17.3292 19.5837L34.6583 9.33305L18.8813 0Z" fill="#808080"/>
<path d="M13.8125 30.7498L7.6 27.0837L1.55208 30.6669L17.4083 40V19.5837L0 9.33305V27.9991L6.04792 24.4159V17.0816C6.04792 16.8309 6.375 16.6652 6.5375 16.7481L13.8938 21.0811C14.1396 21.2468 14.2208 21.4146 14.2208 21.6652V30.3314C14.3042 30.667 14.0583 30.9176 13.8125 30.7498Z" fill="#3C3C3C"/>
</svg>
