<svg width="245" height="270" viewBox="0 0 245 270" fill="none" xmlns="http://www.w3.org/2000/svg">
<g id="Vector">
<path d="M196.223 42.3634C190.776 42.3835 185.327 42.505 179.88 42.6391C172.882 42.812 165.875 42.7168 158.874 42.7168C148.759 42.7168 138.644 42.7168 128.53 42.7168C127.834 42.7168 127.267 43.1717 127.267 43.7306C127.267 44.2882 127.833 44.7406 128.53 44.7406C148.764 45.2331 168.988 45.1654 189.218 45.5226C193.109 45.5915 196.999 45.5877 200.891 45.589C203.346 45.5902 205.775 45.5965 208.211 45.9373C212.99 46.6065 217.606 48.2544 221.735 50.7418C230.687 56.1341 237.07 65.3584 239.142 75.5639C240.002 79.8058 239.901 84.0777 239.911 88.3822C239.922 93.1153 240.025 97.7794 238.946 102.424C236.123 114.586 227.13 124.926 215.352 129.218C209.853 131.222 204.352 131.434 198.557 131.499C193.11 131.56 187.661 131.533 182.215 131.533C164.318 131.533 146.425 131.533 128.53 131.533C127.834 131.533 127.267 131.987 127.267 132.546C127.267 133.104 127.833 133.556 128.53 133.556C147.981 134.048 167.433 134.048 186.885 134.048C190.776 134.048 194.666 134.041 198.557 134.085C201.994 134.123 205.421 134.252 208.84 133.838C214.684 133.133 220.361 131.162 225.386 128.105C234.899 122.32 241.806 112.751 244.11 101.858C245.054 97.4022 244.988 92.911 244.998 88.3822C245.01 82.9185 245.018 77.5852 243.54 72.2732C240.05 59.7243 230.383 49.6128 218.224 45.0489C210.909 42.3032 203.929 42.3371 196.223 42.3634Z" fill="black"/>
<path d="M196.223 135.598C190.776 135.618 185.327 135.739 179.88 135.873C172.882 136.046 165.875 135.951 158.874 135.951C148.759 135.951 138.644 135.951 128.53 135.951C127.834 135.951 127.267 136.406 127.267 136.965C127.267 137.523 127.833 137.975 128.53 137.975C148.764 138.466 168.988 138.398 189.218 138.757C193.109 138.826 196.999 138.822 200.891 138.823C203.346 138.823 205.775 138.831 208.211 139.172C212.99 139.84 217.606 141.489 221.735 143.976C230.687 149.368 237.07 158.591 239.142 168.798C240.002 173.04 239.901 177.312 239.911 181.617C239.922 186.35 240.025 191.014 238.946 195.658C236.123 207.821 227.13 218.16 215.352 222.452C209.853 224.456 204.352 224.668 198.557 224.733C193.11 224.794 187.661 224.766 182.215 224.766C164.318 224.766 146.425 224.766 128.53 224.766C127.834 224.766 127.267 225.222 127.267 225.779C127.267 226.338 127.833 226.789 128.53 226.789C147.981 227.282 167.433 227.282 186.885 227.282C190.776 227.282 194.666 227.276 198.557 227.318C201.994 227.357 205.421 227.486 208.84 227.073C214.684 226.367 220.361 224.396 225.386 221.34C234.899 215.554 241.806 205.984 244.11 195.093C245.054 190.635 244.988 186.145 244.998 181.617C245.01 176.153 245.018 170.82 243.54 165.506C240.05 152.957 230.383 142.847 218.224 138.283C210.909 135.538 203.929 135.571 196.223 135.598Z" fill="black"/>
<path d="M106.148 217.332H0V146.279H106.807" fill="black"/>
<path d="M106.148 126.951H0V55.8985H106.807L106.148 126.951Z" fill="black"/>
<path d="M42.7429 94.3697L15.4942 107.64V101.457L35.4993 92.3371V91.9699L15.4942 82.8509V76.6391L42.7429 89.9085V94.3697Z" fill="white"/>
<path d="M79.9476 108.685V113.852H53.2377V108.685H79.9476Z" fill="white"/>
</g>
</svg>
